<svg xmlns="http://www.w3.org/2000/svg" width="256" height="256"><path fill-opacity=".016" d="M0 128.004v128.004l128.25-.254 128.25-.254.254-127.75L257.008 0H0v128.004m.485.496c0 70.4.119 99.053.265 63.672.146-35.38.146-92.98 0-128C.604 29.153.485 58.1.485 128.5" fill="#1976D2" fill-rule="evenodd"/><path fill-opacity=".203" d="M0 59.511v6.497l128.25-.254L256.5 65.5l.29-6.5.29-6.5-128.54.258L0 53.015v6.496m.328-.011c.005 3.85.185 5.302.402 3.228.216-2.075.213-5.225-.008-7C.501 53.952.324 55.65.328 59.5M24.232 81c-.74 1.186-.838 2-.24 2 1.445 0 1.247 2.736-.242 3.341-.991.401-.984.695.034 1.413.706.498 1.033 1.558.727 2.356-.441 1.151.655 1.495 5.329 1.671l5.885.221-.276-5.129c-.344-6.376-2.188-8.645-5.453-6.711-1.781 1.056-2.353 1.074-2.71.088-.647-1.787-1.619-1.548-3.054.75M56 81c0 1.467-.667 2-2.5 2-1.375 0-2.5.45-2.5 1s1.125 1 2.5 1c2.19 0 2.5.433 2.5 3.5 0 1.925.45 3.5 1 3.5s1-1.575 1-3.5c0-3.237.23-3.5 3.059-3.5 1.785 0 2.802-.417 2.441-1-.34-.55-1.716-1-3.059-1C58.667 83 58 82.454 58 81c0-1.1-.45-2-1-2s-1 .9-1 2m-18 0c0 .55 2.475 1 5.5 1s5.5-.45 5.5-1-2.475-1-5.5-1-5.5.45-5.5 1m1.5 4c-.378.612 1.176 1 4 1s4.378-.388 4-1c-.34-.55-2.14-1-4-1-1.86 0-3.66.45-4 1m-12.342 3c0 1.375.227 1.938.504 1.25.278-.687.278-1.812 0-2.5-.277-.687-.504-.125-.504 1.25M37.5 91c.34.55 3.04 1 6 1s5.66-.45 6-1c.388-.628-1.843-1-6-1s-6.388.372-6 1m-9.904 16.737c-.405.406-1.431.743-2.279.75-1.085.009-1.657 1.274-1.928 4.263l-.385 4.25h4.346c4.175 0 4.349-.122 4.434-3.103.048-1.706.335-3.349.636-3.651.302-.301-.232-1.141-1.186-1.865-2.026-1.539-2.635-1.647-3.638-.644m9.404.326c0 .481-.634.631-1.41.333-1.943-.745-3.26 3.559-1.447 4.729 1.128.728 1.109 1.034-.114 1.821-.809.52-1.108 1.307-.664 1.75.444.442 1.668-.258 2.721-1.557 1.869-2.304 1.914-2.31 1.914-.25 0 1.444.632 2.111 2 2.111 1.145 0 2-.667 2-1.559 0-.857-.45-1.281-1-.941-.55.34-1 .141-1-.441S40.45 113 41 113c1.781 0 1.057-1.998-.75-2.07-1.624-.066-1.628-.119-.046-.75 1.465-.585 1.36-.842-.75-1.836-1.35-.636-2.454-.762-2.454-.281m8.45.143c-2.563 1.152-2.956 7.57-.5 8.156.853.203 6.95.317 13.55.254l12-.116.311-4.329.312-4.33-4.352.268c-2.394.147-4.897-.069-5.562-.48S60 107.268 60 107.74s-1.687.67-3.75.439c-2.062-.23-3.416-.069-3.009.359.408.428.24 1.382-.372 2.12-.724.873-.752 1.342-.08 1.342.88 0 .933.837.257 4-.059.275-.571-.297-1.137-1.27-.567-.974-.772-2.586-.456-3.583.753-2.37-3.087-4.252-6.003-2.941m40.098.044c-.419.963-1.389 1.75-2.155 1.75-.766 0-1.393.45-1.393 1s.675 1 1.5 1 1.5.873 1.5 1.941.45 2.219 1 2.559c.567.351 1-.49 1-1.941 0-2.063.485-2.559 2.5-2.559 2 0 2.5.5 2.5 2.5 0 2.29.372 2.5 4.427 2.5 3.375 0 4.535-.416 4.884-1.75.435-1.667.463-1.667.573 0 .127 1.914 3.575 2.435 4.646.701.449-.726 1.052-.713 1.962.042 1.688 1.401 2.218-.035 1.689-4.57-.356-3.045-.663-3.328-3.287-3.022-1.597.186-2.894-.142-2.894-.732 0-1.928-1.81.718-2.279 3.331-.44 2.449-.451 2.444-.585-.25-.124-2.506-.482-2.75-4.029-2.75-2.383 0-4.098.534-4.421 1.376-.718 1.871-5.464.892-5.978-1.232-.359-1.48-.475-1.469-1.16.106m56.779-.554c-1.707.332-2.075.964-1.716 2.944.286 1.575.07 2.281-.577 1.881-.569-.351-1.034-1.512-1.034-2.58 0-1.598-.707-1.941-4-1.941-3.95 0-4 .047-4.032 3.75-.03 3.514-.124 3.628-1.5 1.809-1.05-1.389-1.147-2.139-.34-2.638 2.101-1.299-.225-2.921-4.187-2.921-3.921 0-3.941.02-3.941 3.941 0 4.169 1.634 6.246 3.096 3.937.723-1.14.879-1.119.904.122.027 1.333.138 1.333 1 0 .533-.825.976-.996.985-.381.009.683 2.326 1.172 5.941 1.254 4.824.109 5.986-.179 6.25-1.548.303-1.575.431-1.575 2.003-.004 2.065 2.066 2.821 2.122 2.821.21 0-.894.586-1.243 1.5-.893 1.168.449 1.5-.249 1.5-3.153 0-3.227-.205-3.559-1.523-2.466-1.273 1.057-1.42.995-.893-.378.347-.902.469-1.58.273-1.505-.196.075-1.335.327-2.53.56M148 110.8c0 2.09-.54 4.34-1.2 5-.933.933-.822 1.2.5 1.2 1.373 0 1.7-.961 1.7-5 0-2.75-.225-5-.5-5s-.5 1.71-.5 3.8M73 109c0 .55 1.548 1 3.441 1 1.893 0 3.719-.45 4.059-1 .373-.604-.99-1-3.441-1-2.232 0-4.059.45-4.059 1m40.695-.302c1.361.265 1.994.949 1.667 1.801-.29.756-1.12 1.147-1.844.87-.723-.278-1.613-.025-1.976.563-.386.625.193 1.068 1.399 1.068 2.321 0 2.635 1.024.859 2.8-.933.933-.801 1.2.594 1.2.986 0 2.029-.9 2.316-2 .288-1.1 1.146-2 1.907-2 .76 0 1.383-.498 1.383-1.107s-.675-.848-1.5-.531c-.825.316-1.5.139-1.5-.393 0-.533.45-.969 1-.969s1-.45 1-1-1.687-.939-3.75-.864c-2.209.08-2.848.311-1.555.562M62 113.059c0 1.682.39 2.818.866 2.524.805-.498.366-5.583-.483-5.583-.21 0-.383 1.377-.383 3.059M73.5 112c-.368.595.823 1 2.941 1 1.957 0 3.559-.45 3.559-1s-1.323-1-2.941-1c-1.618 0-3.219.45-3.559 1m30.579 2.583c.048 1.165.285 1.402.604.605.289-.722.253-1.585-.079-1.917-.332-.332-.568.258-.525 1.312M56 114.455c0 .772 2.976 1.392 3.399.709.254-.412-.406-.814-1.468-.894-1.062-.08-1.931.003-1.931.185M72 116c0 .55 2.025 1 4.5 1s4.5-.45 4.5-1-2.025-1-4.5-1-4.5.45-4.5 1m-47.25 15.08c-2.007 1.169-2.483 8.787-.663 10.607.783.783.783 1.275 0 1.759-1.41.872-1.41 7.831 0 9.241.783.783.783 1.275 0 1.759-2.033 1.257-1.096 3.42 1.663 3.838l2.75.416-2.758.15-2.759.15.115 7.866.115 7.867 13.893-.093c12.602-.084 13.894-.257 13.894-1.866 0-1.495.913-1.774 5.8-1.774 6.626 0 8.2-1.078 8.2-5.618 0-5.488-.787-6.382-5.615-6.382-4.171 0-4.336-.107-3.143-2.031 1.021-1.648 1.007-2.186-.076-2.86-1.077-.671-1.034-.945.218-1.426.854-.328 1.818-.165 2.143.361.785 1.27 8.185 1.231 8.975-.047.414-.67 1.241-.67 2.493 0 2.529 1.354 7.339 1.269 8.763-.155.876-.876 1.528-.85 2.686.111.975.81 2.891 1.048 5.292.659 2.07-.335 4.214-.609 4.764-.609.55 0 2.694.274 4.764.609 2.401.389 4.317.151 5.292-.659 1.158-.961 1.81-.987 2.686-.111 1.516 1.516 7.028 1.488 8.558-.042.933-.933 1.467-.933 2.4 0 1.452 1.452 8.434 1.6 9.302.197.398-.645 1.251-.664 2.39-.055 1.036.555 15.642.867 35.19.753l33.418-.195v-4.955c0-4.461-.249-5.014-2.5-5.546-2.015-.476-2.175-.716-.823-1.236.923-.354 3.083-.114 4.802.535 2.591.978 3.617.896 6.016-.48 2.486-1.427 3.057-1.46 4.071-.239 1.504 1.813 6.374 1.839 8.169.043 1.171-1.171 1.662-1.171 3.263 0a6.733 6.733 0 008.004 0c1.601-1.171 2.092-1.171 3.263 0 1.839 1.84 6.679 1.753 8.256-.147 1.134-1.367 1.441-1.367 2.951 0 1.953 1.767 5.325 1.972 8.094.49 2.761-1.478 2.761-9.452 0-10.93-2.805-1.501-6.627-1.269-8.087.49-1.134 1.367-1.441 1.367-2.951 0-2.099-1.899-6.434-1.976-8.263-.147-1.171 1.171-1.662 1.171-3.263 0a6.733 6.733 0 00-8.004 0c-1.601 1.171-2.092 1.171-3.263 0-1.839-1.84-6.679-1.753-8.256.147-1.131 1.363-1.459 1.35-3.083-.119-1.306-1.182-2.742-1.459-5.107-.985-1.809.364-3.964.661-4.789.661-.825 0-2.98-.297-4.789-.661-2.365-.474-3.801-.197-5.107.985-1.624 1.469-1.952 1.482-3.083.119-1.577-1.9-6.417-1.987-8.256-.147-1.171 1.171-1.662 1.171-3.263 0a6.733 6.733 0 00-8.004 0c-1.601 1.171-2.092 1.171-3.263 0-1.839-1.84-6.679-1.753-8.256.147-1.134 1.367-1.441 1.367-2.951 0-1.92-1.737-5.316-1.977-7.96-.561-1.203.643-2.858.564-4.986-.239-2.663-1.005-3.659-.931-6.077.457-2.486 1.427-3.057 1.46-4.071.239-1.504-1.813-6.374-1.839-8.169-.043-1.171 1.171-1.662 1.171-3.263 0-1.036-.758-2.837-1.378-4.002-1.378-1.165 0-2.966.62-4.002 1.378-1.601 1.171-2.092 1.171-3.263 0-1.829-1.829-6.164-1.752-8.263.147-1.51 1.367-1.817 1.367-2.951 0-1.433-1.727-5.269-1.998-7.953-.561-1.203.643-2.858.564-4.986-.239-2.663-1.005-3.659-.931-6.077.457-2.486 1.427-3.057 1.46-4.071.239C66.286 130.639 64.515 130 63 130c-1.515 0-3.286.639-3.934 1.421-1.014 1.221-1.585 1.188-4.071-.239-2.418-1.388-3.414-1.462-6.077-.457-2.128.803-3.783.882-4.986.239-2.644-1.416-6.04-1.176-7.96.561-1.51 1.367-1.817 1.367-2.951 0-1.439-1.733-5.668-1.961-8.271-.445m-.356 2.336c-.299.778-.397 2.691-.219 4.25.292 2.548.746 2.865 4.491 3.137 3.511.256 4.271-.03 4.84-1.822.371-1.169.4-3.218.065-4.553-.518-2.066-1.207-2.428-4.621-2.428-2.538 0-4.212.52-4.556 1.416m10.992 1.183c-1.004 3.999.68 5.901 5.223 5.901 3.873 0 3.891-.019 3.891-4 0-3.986-.015-4.001-4.217-4.306-3.859-.28-4.275-.076-4.897 2.405m12.031-1.244c-.311.812-.42 2.752-.242 4.311.297 2.586.675 2.834 4.325 2.834h4v-4c0-3.902-.092-4.008-3.758-4.311-2.608-.216-3.931.141-4.325 1.166m10.999.003c-.311.81-.419 2.749-.241 4.308.303 2.644.626 2.834 4.825 2.834h4.5v-4c0-3.992-.008-4.001-4.259-4.308-3.042-.22-4.421.113-4.825 1.166m12.001-.003c-.311.812-.42 2.752-.242 4.311.297 2.586.675 2.834 4.325 2.834h4v-4c0-3.902-.092-4.008-3.758-4.311-2.608-.216-3.931.141-4.325 1.166m10.977.061c-.299.778-.397 2.691-.219 4.25.292 2.548.746 2.865 4.491 3.137 3.511.256 4.271-.03 4.84-1.822.371-1.169.4-3.218.065-4.553-.518-2.066-1.207-2.428-4.621-2.428-2.538 0-4.212.52-4.556 1.416m11.049.956c-.343 1.366-.32 3.44.051 4.609.569 1.792 1.329 2.078 4.84 1.822 4.143-.301 4.166-.325 4.166-4.303 0-3.986-.015-4.001-4.217-4.306-3.772-.274-4.283-.044-4.84 2.178m11.974-1.017c-.311.812-.42 2.752-.242 4.311.297 2.586.675 2.834 4.325 2.834h4v-4c0-3.902-.092-4.008-3.758-4.311-2.608-.216-3.931.141-4.325 1.166m11.297-.735c-.393.392-.714 2.144-.714 3.892 0 3.86-2.632 6.488-6.5 6.488-1.563 0-3.665-.745-4.671-1.655-1.094-.99-1.829-1.191-1.829-.5 0 1.997.407 2.663 1.477 2.417.632-.145.9 1.472.686 4.153-.301 3.784-.05 4.486 1.816 5.078 1.191.378 3.302.402 4.69.054 2.301-.578 2.494-1.029 2.172-5.078-.28-3.524-.041-4.395 1.153-4.207.855.135 1.403-.411 1.268-1.262-.184-1.156.849-1.5 4.5-1.5h4.738v-4c0-3.957-.043-4.003-4.036-4.297-2.22-.163-4.358.024-4.75.417m11.703.735c-.311.812-.42 2.752-.242 4.311.297 2.586.675 2.834 4.325 2.834h4v-4c0-3.902-.092-4.008-3.758-4.311-2.608-.216-3.931.141-4.325 1.166m10.977.061c-.299.778-.397 2.691-.219 4.25.275 2.398.835 2.883 3.64 3.152 1.824.175 3.961-.217 4.75-.872 1.746-1.449 1.873-5.108.235-6.746-1.68-1.68-7.738-1.525-8.406.216m11.049.956c-.343 1.366-.32 3.44.051 4.609.569 1.792 1.329 2.078 4.84 1.822 4.143-.301 4.166-.325 4.166-4.303 0-3.986-.015-4.001-4.217-4.306-3.772-.274-4.283-.044-4.84 2.178m11.974-1.017c-.311.812-.42 2.752-.242 4.311.297 2.586.675 2.834 4.325 2.834h4v-4c0-3.902-.092-4.008-3.758-4.311-2.608-.216-3.931.141-4.325 1.166m10.977.061c-.299.778-.397 2.691-.219 4.25.292 2.548.746 2.865 4.491 3.137 3.511.256 4.271-.03 4.84-1.822.371-1.169.4-3.218.065-4.553-.518-2.066-1.207-2.428-4.621-2.428-2.538 0-4.212.52-4.556 1.416m11.852-.262c-1.678 1.678-1.577 5.327.189 6.792.789.655 2.926 1.047 4.75.872 3.148-.302 3.315-.52 3.315-4.318 0-3.849-.132-4.011-3.504-4.296-1.928-.162-4.065.265-4.75.95m11.148.262c-.299.778-.397 2.691-.219 4.25.275 2.398.835 2.883 3.64 3.152 1.824.175 3.961-.217 4.75-.872 1.746-1.449 1.873-5.108.235-6.746-1.68-1.68-7.738-1.525-8.406.216m11.049.956c-.343 1.366-.32 3.44.051 4.609.569 1.792 1.329 2.078 4.84 1.822 4.143-.301 4.166-.325 4.166-4.303 0-3.986-.015-4.001-4.217-4.306-3.772-.274-4.283-.044-4.84 2.178m11.974-1.017c-.311.812-.42 2.752-.242 4.311.297 2.586.675 2.834 4.325 2.834h4v-4c0-3.902-.092-4.008-3.758-4.311-2.608-.216-3.931.141-4.325 1.166m10.977.061c-.299.778-.397 2.691-.219 4.25.292 2.548.746 2.865 4.491 3.137 3.511.256 4.271-.03 4.84-1.822.371-1.169.4-3.218.065-4.553-.518-2.066-1.207-2.428-4.621-2.428-2.538 0-4.212.52-4.556 1.416m11.852-.262c-1.678 1.678-1.577 5.327.189 6.792.789.655 2.926 1.047 4.75.872 3.148-.302 3.315-.52 3.315-4.318 0-3.849-.132-4.011-3.504-4.296-1.928-.162-4.065.265-4.75.95M28 135.941c0 1.132.45 2.059 1 2.059s1-.648 1-1.441-.45-1.719-1-2.059c-.55-.34-1 .309-1 1.441M39 136c0 1.1.402 2 .893 2 1.124 0 2.173-2.601 1.371-3.402C40.061 133.394 39 134.051 39 136m11.27-.064c.086 1.135.768 2.064 1.516 2.064 1.629 0 1.223-3.165-.479-3.731-.694-.232-1.127.465-1.037 1.667m11.931-.681c-.932 1.125-.983 1.761-.183 2.256 1.48.915 2.237.047 1.82-2.088-.304-1.563-.467-1.579-1.637-.168M73 136c0 1.111.667 2 1.5 2 1.683 0 1.751-.183.893-2.418-.857-2.235-2.393-1.966-2.393.418m11.639-1.306c-1.195 1.195-.645 3.306.861 3.306.825 0 1.5-.648 1.5-1.441 0-1.671-1.427-2.798-2.361-1.865M96 136c0 1.1.402 2 .893 2 1.124 0 2.173-2.601 1.371-3.402C97.061 133.394 96 134.051 96 136m11-.083c0 1.228.646 2.083 1.573 2.083.932 0 1.442-.68 1.25-1.667-.486-2.509-2.823-2.853-2.823-.416m11.5-.917c-.729 1.18.217 3 1.559 3 .518 0 .941-.9.941-2 0-2.109-1.455-2.691-2.5-1m10.5 1.167c0 1.302.745 1.833 2.573 1.833 1.865 0 2.485-.459 2.25-1.668-.462-2.384-4.823-2.533-4.823-.165m11.625-1.369c-.271.439-.08 1.451.426 2.25.717 1.134.922.959.934-.798.015-2.313-.493-2.856-1.36-1.452M143 136c0 1.1.45 2 1 2s1-.9 1-2-.45-2-1-2-1 .9-1 2m9 .137c0 1.302.726 1.863 2.412 1.863 1.727 0 2.338-.496 2.155-1.75-.361-2.461-4.567-2.566-4.567-.113m11-.137c0 1.467.667 2 2.5 2s2.5-.533 2.5-2c0-2.463-1.685-2.646-2.311-.25-.435 1.667-.463 1.667-.573 0-.162-2.437-2.116-2.206-2.116.25m11.751-1.417c-1.258 1.258.547 3.417 2.856 3.417 2.542 0 2.892-.665 1.503-2.857-.659-1.039-1.035-1.073-1.61-.143-.544.88-.941.905-1.443.092-.382-.617-.969-.846-1.306-.509m11.25 1.667c-.001 1.2.784 1.75 2.499 1.75 1.787 0 2.5-.54 2.5-1.894 0-1.392-.662-1.856-2.499-1.75-1.659.095-2.5.733-2.5 1.894m11.69-1.559c-.773 1.251.464 2.751 2.559 3.103 1.192.2 1.75-.358 1.75-1.75 0-1.124-.45-2.044-1-2.044s-1.007.563-1.015 1.25c-.012.92-.243.892-.875-.107-.473-.746-1.112-.949-1.419-.452m10.822.13c-.91.909.866 3.179 2.487 3.179 1.476 0 3-1.813 3-3.571 0-.492-4.957-.139-5.487.392M220 136.125c0 1.333.722 1.875 2.5 1.875s2.5-.542 2.5-1.875-.722-1.875-2.5-1.875-2.5.542-2.5 1.875m11.541-1.192c-.734 1.188.913 2.637 2.959 2.602 2.8-.049 2.542-3.008-.275-3.15-1.251-.063-2.458.184-2.684.548m11.382-.677c-.955 3.045-.538 3.744 2.239 3.744 2.238 0 2.904-.413 2.661-1.651-.253-1.294-4.571-3.138-4.9-2.093M33.5 141c-.399.646-.276 1.624.274 2.174.667.667 1.242.609 1.726-.174.399-.646.276-1.624-.274-2.174-.667-.667-1.242-.609-1.726.174m23 0c-.399.646-.276 1.624.274 2.174.667.667 1.242.609 1.726-.174.399-.646.276-1.624-.274-2.174-.667-.667-1.242-.609-1.726.174m11.04-.065c-.897 1.452.243 3.086 1.75 2.507.886-.34 1.128.771.871 4-.331 4.166-.168 4.518 2.397 5.162 4.039 1.014 5.942-.656 5.942-5.213 0-3.718-.156-3.906-3.5-4.219-1.925-.181-4.243-.997-5.151-1.815-1.103-.994-1.869-1.134-2.309-.422M90.5 141c-.399.646-.276 1.624.274 2.174.667.667 1.242.609 1.726-.174.399-.646.276-1.624-.274-2.174-.667-.667-1.242-.609-1.726.174m34 0c-.399.646-.276 1.624.274 2.174.667.667 1.242.609 1.726-.174.399-.646.276-1.624-.274-2.174-.667-.667-1.242-.609-1.726.174m22.059.532c-1.833 1.386-1.756 1.468 1.372 1.468 2.832 0 3.133-.218 2.069-1.5-.685-.825-1.302-1.486-1.372-1.468-.071.017-1.002.692-2.069 1.5m11.652.068c-1.084 1.177-.779 1.4 1.916 1.4 1.764 0 3.019-.127 2.79-.283a92.459 92.459 0 01-1.917-1.4c-1.132-.842-1.816-.773-2.789.283m11.346-.018c-1.812 1.325-1.713 1.417 1.502 1.403 1.892-.009 2.991-.351 2.441-.762-.55-.41-1.226-1.042-1.502-1.403-.275-.361-1.374-.018-2.441.762m11.453-.094c-1.077 1.297-.788 1.512 2.034 1.512 1.809 0 3.102-.127 2.873-.283a85.2 85.2 0 01-2.034-1.512c-1.304-.991-1.861-.936-2.873.283m-136.467.443c-.74 1.197 1.141 2.382 2.473 1.559 1.119-.691.384-2.49-1.016-2.49-.485 0-1.141.419-1.457.931m34 0c-.74 1.197 1.141 2.382 2.473 1.559 1.119-.691.384-2.49-1.016-2.49-.485 0-1.141.419-1.457.931m57.151-.292c-1.18 1.18.287 2.179 2.392 1.628 1.584-.414 1.763-.747.749-1.39-1.617-1.025-2.302-1.077-3.141-.238M25.2 144.2c-1.547 1.547-1.547 6.053 0 7.6.66.66 2.37 1.2 3.8 1.2 3.305 0 5-1.695 5-5 0-3.305-1.695-5-5-5-1.43 0-3.14.54-3.8 1.2m11 0c-.66.66-1.2 2.37-1.2 3.8 0 3.305 1.695 5 5 5 3.305 0 5-1.695 5-5 0-3.305-1.695-5-5-5-1.43 0-3.14.54-3.8 1.2m11.217.155c-.946 2.467-.013 6.883 1.678 7.941.878.549 2.815.692 4.306.318 2.481-.622 2.685-1.038 2.405-4.897-.297-4.089-.42-4.226-4.064-4.528-2.608-.216-3.931.141-4.325 1.166M59.2 144.2c-.66.66-1.2 2.37-1.2 3.8 0 3.305 1.695 5 5 5 3.305 0 5-1.695 5-5 0-3.305-1.695-5-5-5-1.43 0-3.14.54-3.8 1.2m23 0c-1.547 1.547-1.547 6.053 0 7.6.66.66 2.37 1.2 3.8 1.2 3.305 0 5-1.695 5-5 0-3.305-1.695-5-5-5-1.43 0-3.14.54-3.8 1.2m11 0c-1.547 1.547-1.547 6.053 0 7.6.66.66 2.37 1.2 3.8 1.2 3.305 0 5-1.695 5-5 0-3.305-1.695-5-5-5-1.43 0-3.14.54-3.8 1.2m23 0c-1.547 1.547-1.547 6.053 0 7.6.66.66 2.37 1.2 3.8 1.2 3.305 0 5-1.695 5-5 0-3.305-1.695-5-5-5-1.43 0-3.14.54-3.8 1.2m11.514-.581c-.393.393-.714 2.431-.714 4.529 0 3.293.362 3.905 2.655 4.48 3.944.99 5.845-.713 5.845-5.237 0-3.732-.145-3.903-3.536-4.189-1.944-.163-3.857.024-4.25.417M26.275 148c-.089 1.176.466 2 1.346 2 .932 0 1.213-.472.746-1.25-.51-.849-.209-.81.941.122 1.489 1.208 1.692 1.118 1.692-.75 0-2.915-4.506-3.032-4.725-.122m11.154 0c0 1.482.666 2 2.572 2 1.857 0 2.615-.557 2.724-2 .117-1.547-.466-2-2.573-2-2.057 0-2.723.49-2.723 2m11.846 0c-.113 1.494.466 2 2.287 2 1.771 0 2.438-.547 2.438-2 0-1.417-.667-2-2.287-2-1.571 0-2.335.627-2.438 2m10.996.055c-.119 1.575.37 1.928 2.315 1.667 1.357-.182 2.455-.643 2.44-1.026a49.11 49.11 0 01-.026-1.478c0-.43-1.03-.867-2.289-.971-1.644-.136-2.332.374-2.44 1.808M72 148.07c0 1.571.539 1.992 2.24 1.75 3.324-.475 3.616-3.82.333-3.82-1.935 0-2.573.513-2.573 2.07m11.275-.07c-.11 1.457.466 2 2.12 2 2.782 0 3.636-.757 2.929-2.598-.853-2.224-4.872-1.748-5.049.598m11 0c-.187 2.482 4.189 2.84 5.118.418.902-2.35.841-2.418-2.18-2.418-2.071 0-2.826.514-2.938 2m12 0c-.113 1.494.466 2 2.287 2 1.771 0 2.438-.547 2.438-2 0-1.417-.667-2-2.287-2-1.571 0-2.335.627-2.438 2m11.003-.046c-.091 1.219.452 2.046 1.343 2.046.823 0 1.25-.399.949-.887-.302-.488.009-.825.691-.75.681.075 1.365-.313 1.52-.863.155-.55-.761-1.133-2.034-1.296-1.724-.22-2.354.226-2.469 1.75m11.722.04c0 1.502.555 1.909 2.25 1.651 3.313-.504 3.592-3.645.323-3.645-1.904 0-2.573.519-2.573 1.994m-96.625 5.349c-1.145.636-1.868 1.77-1.607 2.52.4 1.151.611 1.151 1.353 0 .73-1.132 1.025-1.137 1.74-.029.695 1.077.976 1.033 1.462-.233.702-1.829 3.677-1.059 3.677.951 0 .877-1.636 1.467-4.75 1.713l-4.75.375 5.25.18c4.621.158 5.25-.056 5.25-1.794 0-2.846-4.886-5.206-7.625-3.683m11.249.141c-1.713 1.297-1.527 1.406 2.156 1.259 3.466-.138 3.799-.337 2.376-1.42-2.074-1.577-2.245-1.571-4.532.161M53 156.046c0 1.806-.558 2.02-4.75 1.823-2.612-.123-5.025-.631-5.361-1.13-.336-.499-.884-.194-1.218.677-.516 1.345.369 1.584 5.86 1.584 6.234 0 6.469-.091 6.469-2.5 0-1.375-.225-2.5-.5-2.5s-.5.921-.5 2.046" fill="#1976D2" fill-rule="evenodd"/><path fill-opacity=".325" d="M0 59.011v5.997l128.25-.254L256.5 64.5l.291-6 .292-6-128.542.258L0 53.015v5.996M.32 59c0 3.575.182 5.037.403 3.25.222-1.788.222-4.712 0-6.5C.502 53.962.32 55.425.32 59m18.433-1.488c-.318 1.665-.025 2.488.886 2.488.748 0 1.361-.873 1.361-1.941 0-2.954-1.707-3.37-2.247-.547M6 57c0 .55.9 1 2 1s2-.45 2-1-.9-1-2-1-2 .45-2 1m.75 2.662c.688.278 1.813.278 2.5 0 .688-.277.125-.504-1.25-.504s-1.937.227-1.25.504m18.182 20.397l-.308 6.691c-.132 2.888.124 5.25.568 5.25.444 0 .808-.675.808-1.5 0-2.498.129-2.95 1.207-4.25.726-.874.7-1.25-.085-1.25-.617 0-1.122-.45-1.122-1s.731-1 1.625-1c1.611 0 1.575 2.762-.092 7.067-.49 1.267.151 1.555 3.35 1.5l3.956-.067.331-4.822c.248-3.622-.105-5.215-1.42-6.405-1.602-1.449-1.927-1.423-3.84.309-2.052 1.856-2.117 1.855-3.5-.036-1.026-1.403-1.428-1.536-1.478-.487m31.578.691c-.409 1.239-1.563 2.25-2.568 2.25-1.003 0-2.102.45-2.442 1-.351.567.49 1 1.941 1 2.165 0 2.559.453 2.559 2.941 0 1.618.45 3.219 1 3.559.595.368 1-.823 1-2.941 0-3.13.302-3.559 2.5-3.559 1.375 0 2.5-.45 2.5-1s-1.094-1-2.43-1c-1.723 0-2.56-.655-2.873-2.25l-.443-2.25-.744 2.25m-15.742-.025c1.797.222 4.497.218 6-.01 1.503-.229.032-.411-3.268-.405-3.3.005-4.529.192-2.732.415m.496 4.993c1.52.229 3.77.223 5-.014 1.23-.237-.014-.425-2.764-.418-2.75.008-3.756.202-2.236.432m-9.451 3.965c.721.289 1.584.253 1.916-.079.332-.332-.258-.568-1.312-.525-1.165.048-1.402.285-.604.604m7.915 1.039c1.775.221 4.925.224 7 .008 2.074-.217.622-.397-3.228-.402-3.85-.004-5.548.173-3.772.394m-15.973 17.857c-.175.174-.145 2.131.067 4.349.343 3.604.585 3.924 2.281 3.017 1.134-.607 1.897-.637 1.897-.074 0 .518.817.728 1.817.467 1.358-.356 1.791-1.386 1.716-4.089-.096-3.442-.274-3.622-3.781-3.8-2.024-.103-3.823-.045-3.997.13m10.191 1.523c-.799 1.493-.674 2.065.554 2.536 1.43.549 1.419.794-.112 2.486-.934 1.032-1.204 1.876-.6 1.876s1.742-.918 2.528-2.041l1.429-2.041.562 2.147c.603 2.309 2.82 2.227 3.457-.127.316-1.17.19-1.158-.673.062-.915 1.294-1.062 1.26-1.076-.25-.008-.963.548-1.779 1.235-1.813.688-.035.125-.533-1.25-1.105-2.382-.993-2.405-1.081-.5-1.867 1.385-.571 1.539-.87.5-.971a44.205 44.205 0 01-3.261-.484c-.973-.186-2.223.527-2.793 1.592m10.481-1.499c-1.462.607-.556 6.045 1.258 7.551 1.16.962 1.638.942 2.279-.096.447-.723 1.266-1.034 1.821-.691 1.328.821 1.05-5.621-.285-6.602-1.085-.797-3.367-.87-5.073-.162m8.851 1.351c-.084 1.125.381 2.053 1.034 2.061.71.009.584.406-.312.985-1.178.761-1.206.973-.128.985 1.107.012 1.132.306.128 1.515-1.464 1.764-1.046 1.848 2.498.501 2.206-.839 2.578-1.522 2.315-4.25-.253-2.633-.795-3.307-2.847-3.547-1.944-.226-2.569.181-2.688 1.75m6.565 2.546c-.196 2.475-.017 4.5.4 4.5.416 0 .757-2.025.757-4.5s-.18-4.5-.399-4.5c-.22 0-.561 2.025-.758 4.5m3.44-.024c.057 3.594.331 4.259 1.394 3.377.988-.819 1.331-.75 1.355.275.023.983.408.876 1.36-.378 1.396-1.84 3.172-2.471 2.108-.75-.34.55-.174 1 .369 1 .543 0 .907-1.799.809-3.997-.174-3.899-.268-3.997-3.822-4L63.212 108l.071 4.476m10.045-3.815c.925.926 6.672 1.002 6.672.089 0-.412-1.65-.75-3.667-.75-2.016 0-3.369.297-3.005.661m12.788.519c-.064.925-1.129 1.876-2.366 2.114-2.238.431-2.239.434-.066.57 1.568.098 2.3.91 2.6 2.886l.416 2.75.15-2.68c.108-1.923.786-2.803 2.4-3.114 2.228-.429 2.229-.435.073-.57-1.197-.075-2.382-.923-2.634-1.886-.408-1.561-.47-1.569-.573-.07m6.538.278c-.33.86-.283 3.021.104 4.803l.704 3.239.627-4 .627-4 .142 3.533c.128 3.185.413 3.521 2.892 3.412 2.515-.11 2.748-.455 2.729-4.033-.019-3.765-.156-3.923-3.622-4.215-2.547-.214-3.778.156-4.203 1.261m9.984-.208c-1.341 3.678-1.35 4.296-.081 5.481 1.039.97 1.398.867 1.758-.506.316-1.202.488-1.006.569.647.09 1.85.408 2.131 1.44 1.274.966-.802 1.641-.781 2.5.078.901.901 1.176.108 1.176-3.399 0-4.213-.198-4.575-2.5-4.575-1.851 0-2.526.552-2.6 2.125-.089 1.896-.182 1.855-.862-.375-.644-2.11-.862-2.227-1.4-.75m9.362-.863c0 .821 6.116 1.234 6.603.446.283-.458-1.087-.833-3.044-.833s-3.559.174-3.559.387m9.894-.137c-.644 1.52-.243 6.466.488 6.014.562-.347.671.155.265 1.213-.52 1.355-.375 1.568.58.853 1.468-1.099 2.78-1.113 4.454-.048.649.413 1.463.293 1.809-.266.345-.559.101-1.016-.542-1.016-.796 0-.961-1.12-.514-3.5.52-2.773.336-3.5-.889-3.5-.85 0-1.545.54-1.545 1.2 0 .933-.267.933-1.2 0-1.084-1.084-2.634-1.591-2.906-.95m9.106 3.781c0 4.754 2.059 6.13 5.08 3.396 1.94-1.756 1.983-1.754 1.293.043-.494 1.288-.354 1.636.457 1.135.644-.398 1.17-2.457 1.17-4.576 0-3.038-.355-3.8-1.679-3.606-.923.136-2.017 1.109-2.43 2.162-.683 1.744-.757 1.714-.821-.335-.04-1.302-.702-2.25-1.57-2.25-1.085 0-1.5 1.115-1.5 4.031m10.534-1.855c.23 1.197-.133 2.858-.808 3.692-.973 1.203-.968 1.361.024.765.809-.486 1.282-.112 1.34 1.058.05.995.513.346 1.029-1.441.516-1.787 1.375-3.25 1.91-3.25 1.384 0 1.205 1.755-.228 2.233-.751.25-.563.644.5 1.052 1.356.521 1.699.072 1.699-2.223 0-2.461-.324-2.804-2.25-2.382-1.808.397-1.955.283-.75-.578 1.25-.893 1.134-1.074-.693-1.087-1.716-.012-2.101.458-1.773 2.161m6.309 2.324c-.196 2.475-.017 4.5.4 4.5.416 0 .757-2.025.757-4.5s-.18-4.5-.399-4.5c-.22 0-.561 2.025-.758 4.5M35 111c0 .55.45 1 1 1s1-.45 1-1-.45-1-1-1-1 .45-1 1m80-.07c0 .512-1.013 1.126-2.25 1.364-2.227.429-2.226.435.117.57 1.848.106 2.252.574 1.843 2.136-.287 1.1-.115 2 .384 2 .498 0 .906-.9.906-2 0-1.373.705-2.036 2.25-2.116 1.693-.087 1.817-.229.5-.573-.963-.252-1.75-.875-1.75-1.384 0-.51-.45-.927-1-.927s-1 .419-1 .93m10.079 1.653c.048 1.165.285 1.402.604.605.289-.722.253-1.585-.079-1.917-.332-.332-.568.258-.525 1.312m-68.746.917c0 .825.375 1.5.834 1.5.458 0 .833-.675.833-1.5s-.375-1.5-.833-1.5c-.459 0-.834.675-.834 1.5m18.917-.811c.963.252 2.537.252 3.5 0 .963-.251.175-.457-1.75-.457s-2.713.206-1.75.457m-.986 3.029c1.52.229 3.77.223 5-.014 1.23-.237-.014-.425-2.764-.418-2.75.008-3.756.202-2.236.432M58.2 132.2c-1.338 1.338-1.642 7.409-.409 8.171.435.269.61-1.061.389-2.955-.221-1.894.153-4.112.831-4.93 1.476-1.778.888-1.985-.811-.286m8.661.036c.78.996 1.189 3.206.959 5.18-.221 1.894-.046 3.224.389 2.955 1.515-.936.819-7.104-.959-8.499-1.583-1.241-1.62-1.206-.389.364m48.339-.036c-1.338 1.338-1.642 7.409-.409 8.171.435.269.61-1.061.389-2.955-.221-1.894.153-4.112.831-4.93 1.476-1.778.888-1.985-.811-.286m-23.533.467c-.913.912-.846 7.105.083 7.678.412.255.75-1.518.75-3.94 0-2.423-.037-4.405-.083-4.405-.046 0-.384.3-.75.667M124.5 136.5c0 2.37.338 4.1.75 3.845.412-.254.75-1.985.75-3.845s-.338-3.591-.75-3.845c-.412-.255-.75 1.475-.75 3.845m24.167-3.833c-.913.912-.846 7.105.083 7.678.412.255.75-1.518.75-3.94 0-2.423-.037-4.405-.083-4.405-.046 0-.384.3-.75.667m23 0c-.913.912-.846 7.105.083 7.678.412.255.75-1.518.75-3.94 0-2.423-.037-4.405-.083-4.405-.046 0-.384.3-.75.667m9.833 3.833c0 2.37.338 4.1.75 3.845.412-.254.75-1.985.75-3.845s-.338-3.591-.75-3.845c-.412-.255-.75 1.475-.75 3.845m24.167-3.833c-.913.912-.846 7.105.083 7.678.412.255.75-1.518.75-3.94 0-2.423-.037-4.405-.083-4.405-.046 0-.384.3-.75.667m10.284 3.609c.487 4.12.508 4.141.847.847.191-1.858-.033-3.758-.499-4.224-.466-.466-.622 1.054-.348 3.377m22.549.224c0 2.37.338 4.1.75 3.845.412-.254.75-1.985.75-3.845s-.338-3.591-.75-3.845c-.412-.255-.75 1.475-.75 3.845m-204.248 0c.011 2.2.216 2.982.455 1.738.239-1.244.23-3.044-.02-4s-.446.062-.435 2.262m11 0c.011 2.2.216 2.982.455 1.738.239-1.244.23-3.044-.02-4s-.446.062-.435 2.262m35 0c.011 2.2.216 2.982.455 1.738.239-1.244.23-3.044-.02-4s-.446.062-.435 2.262m22 0c.011 2.2.216 2.982.455 1.738.239-1.244.23-3.044-.02-4s-.446.062-.435 2.262m35 0c.011 2.2.216 2.982.455 1.738.239-1.244.23-3.044-.02-4s-.446.062-.435 2.262m22 0c.011 2.2.216 2.982.455 1.738.239-1.244.23-3.044-.02-4s-.446.062-.435 2.262m33.748-.059c0 1.957.45 3.559 1 3.559s1-1.323 1-2.941c0-1.618-.45-3.219-1-3.559-.595-.368-1 .823-1 2.941m35.252.059c.011 2.2.216 2.982.455 1.738.239-1.244.23-3.044-.02-4s-.446.062-.435 2.262m-177.545-.489c-.337 1.289-.025 1.989.887 1.989 1.545 0 1.932-2.557.52-3.43-.488-.301-1.121.347-1.407 1.441m23.216-1.761c-.633 2.069-.559 3.75.165 3.75.502 0 .912-.9.912-2 0-1.608-.748-2.824-1.077-1.75M96.429 136c0 1.295.338 1.633.985.986.648-.648.648-1.324 0-1.972-.647-.647-.985-.309-.985.986m34.321-1.254c-.963.22-1.75.765-1.75 1.211 0 1.25 3.919 1.982 4.612.862.854-1.382-.763-2.554-2.862-2.073m23.957 1.265c-.286 1.094-.16 1.989.28 1.989 1.175 0 2.067-2.848 1.083-3.457-.463-.286-1.077.374-1.363 1.468m11.293-.07c0 1.132.45 2.059 1 2.059s1-.648 1-1.441-.45-1.719-1-2.059c-.55-.34-1 .309-1 1.441m22.569-1.053c-.389.629-1.126.886-1.638.569-.512-.316-.931-.05-.931.591s.646.918 1.435.615c.79-.303 1.628-.013 1.863.643.236.657.756.89 1.157.519.4-.371.299-1.442-.225-2.378-.657-1.174-1.173-1.348-1.661-.559M212.158 136c0 1.375.227 1.938.504 1.25.278-.687.278-1.812 0-2.5-.277-.687-.504-.125-.504 1.25m30.842.237c0 1.401.593 1.818 2.25 1.583 1.238-.176 2.25-.958 2.25-1.737 0-.78-1.012-1.492-2.25-1.583-1.603-.118-2.25.381-2.25 1.737m-214.921.346c.048 1.165.285 1.402.604.605.289-.722.253-1.585-.079-1.917-.332-.332-.568.258-.525 1.312m11.254-.083c0 .825.375 1.5.834 1.5.458 0 .833-.675.833-1.5s-.375-1.5-.833-1.5c-.459 0-.834.675-.834 1.5m22.667 0c0 .825.45 1.5 1 1.5s1-.675 1-1.5-.45-1.5-1-1.5-1 .675-1 1.5m22.597-.656c-.346.56-.142 1.319.453 1.687 1.538.95 2.53-.351 1.246-1.635-.718-.718-1.277-.735-1.699-.052m22.403.739c0 .871.534 1.406 1.188 1.188 1.854-.618 2.161-2.771.395-2.771-.87 0-1.583.713-1.583 1.583m12-.083c0 .825.45 1.5 1 1.5s1-.675 1-1.5-.45-1.5-1-1.5-1 .675-1 1.5m21.638 0c.317.825.753 1.5.969 1.5.216 0 .393-.675.393-1.5s-.436-1.5-.969-1.5c-.532 0-.709.675-.393 1.5m2.362-.559c0 .518.45 1.219 1 1.559.55.34 1-.084 1-.941s-.45-1.559-1-1.559-1 .423-1 .941m9.079.642c.048 1.165.285 1.402.604.605.289-.722.253-1.585-.079-1.917-.332-.332-.568.258-.525 1.312m11.559-.083c.317.825.753 1.5.969 1.5.216 0 .393-.675.393-1.5s-.436-1.5-.969-1.5c-.532 0-.709.675-.393 1.5m11.441.083c.048 1.165.285 1.402.604.605.289-.722.253-1.585-.079-1.917-.332-.332-.568.258-.525 1.312m2.464-.652c-.317.512-.118 1.213.441 1.559.559.345 1.016-.074 1.016-.931 0-1.757-.6-2.015-1.457-.628m20.095.569c.317.825.753 1.5.969 1.5.216 0 .393-.675.393-1.5s-.436-1.5-.969-1.5c-.532 0-.709.675-.393 1.5m2.362 0c0 .825.45 1.5 1 1.5s1-.675 1-1.5-.45-1.5-1-1.5-1 .675-1 1.5m9.079.083c.048 1.165.285 1.402.604.605.289-.722.253-1.585-.079-1.917-.332-.332-.568.258-.525 1.312m11.559-.083c.317.825.753 1.5.969 1.5.216 0 .393-.675.393-1.5s-.436-1.5-.969-1.5c-.532 0-.709.675-.393 1.5m2.362 0c0 .825.45 1.5 1 1.5s1-.675 1-1.5-.45-1.5-1-1.5-1 .675-1 1.5m9.079.083c.048 1.165.285 1.402.604.605.289-.722.253-1.585-.079-1.917-.332-.332-.568.258-.525 1.312m1.921-.642c0 .518.45 1.219 1 1.559.55.34 1-.084 1-.941s-.45-1.559-1-1.559-1 .423-1 .941m-206.75 6.748c.962.252 2.538.252 3.5 0 .962-.251.175-.457-1.75-.457s-2.712.206-1.75.457m11 0c.962.252 2.538.252 3.5 0 .962-.251.175-.457-1.75-.457s-2.712.206-1.75.457m9.393.079c-.261.423 1.287.601 3.441.395 2.154-.205 3.916-.551 3.916-.768 0-.745-6.882-.396-7.357.373m13.607-.079c.962.252 2.538.252 3.5 0 .963-.251.175-.457-1.75-.457s-2.712.206-1.75.457m9.75-.294c0 .217 1.762.563 3.916.768 2.154.206 3.702.028 3.441-.395-.475-.769-7.357-1.118-7.357-.373m13.25.294c.963.252 2.537.252 3.5 0 .963-.251.175-.457-1.75-.457s-2.713.206-1.75.457m11 0c.963.252 2.537.252 3.5 0 .963-.251.175-.457-1.75-.457s-2.713.206-1.75.457m9.393.079c-.261.423 1.287.601 3.441.395 2.154-.205 3.916-.551 3.916-.768 0-.745-6.882-.396-7.357.373m13.607-.079c.963.252 2.537.252 3.5 0 .963-.251.175-.457-1.75-.457s-2.713.206-1.75.457m12.746.053c4.811.58 6.293 2.055 5.736 5.712-.87 5.708-1.896 5.515 29.398 5.513l28.973-.001-.301-5.082-.302-5.082-29.393-.378c-16.167-.208-29.629-.613-29.917-.901-.288-.288-2.136-.451-4.107-.363l-3.583.16 3.496.422M34.232 148c0 1.925.206 2.713.457 1.75.252-.963.252-2.537 0-3.5-.251-.963-.457-.175-.457 1.75m11 0c0 1.925.206 2.713.457 1.75.252-.963.252-2.537 0-3.5-.251-.963-.457-.175-.457 1.75m12 0c0 1.925.206 2.713.457 1.75.252-.963.252-2.537 0-3.5-.251-.963-.457-.175-.457 1.75m11 0c0 1.925.206 2.713.457 1.75.252-.963.252-2.537 0-3.5-.251-.963-.457-.175-.457 1.75m12 0c0 1.925.206 2.713.457 1.75.252-.963.252-2.537 0-3.5-.251-.963-.457-.175-.457 1.75m11 0c0 1.925.206 2.713.457 1.75.252-.963.252-2.537 0-3.5-.251-.963-.457-.175-.457 1.75m11 0c0 1.925.206 2.713.457 1.75.252-.963.252-2.537 0-3.5-.251-.963-.457-.175-.457 1.75m12 0c0 1.925.206 2.713.457 1.75.252-.963.252-2.537 0-3.5-.251-.963-.457-.175-.457 1.75m11 0c0 1.925.206 2.713.457 1.75.252-.963.252-2.537 0-3.5-.251-.963-.457-.175-.457 1.75m-98.839-.529c.362 2.466 1.607 3.005 1.607.696 0-1.192-.41-2.167-.912-2.167-.501 0-.814.662-.695 1.471m3.245.029c.317.825.753 1.5.969 1.5.216 0 .393-.675.393-1.5s-.436-1.5-.969-1.5c-.532 0-.709.675-.393 1.5m8.628.618c-.154 2.046-.108 2.055 1.361.25.837-1.027 1.256-1.337.931-.687-.325.649-.133 1.463.426 1.809.562.348 1.016-.291 1.016-1.431 0-2.837-3.52-2.781-3.734.059m11.127-.647c.362 2.466 1.607 3.005 1.607.696 0-1.192-.41-2.167-.912-2.167-.501 0-.814.662-.695 1.471m2.88.551c-.083 1.112.271 1.76.788 1.441 1.136-.703 1.258-3.463.152-3.463-.433 0-.856.91-.94 2.022m8.806.29c.043 1.203.297 1.651.565.994.267-.656 1.131-.946 1.921-.643.824.316 1.435-.043 1.435-.843 0-.767-.9-1.462-2-1.545-1.457-.11-1.979.443-1.921 2.037m11.192-.062c-.15 2.187-.114 2.195 1.287.309 1.301-1.751 1.442-1.77 1.442-.191 0 .962.43 1.484.956 1.159 1.446-.893.064-3.527-1.85-3.527-1.03 0-1.74.871-1.835 2.25m11.14-.654c.256 1.743 1.589 3.087 1.589 1.602 0-.624.675-.876 1.5-.56.917.352 1.5 0 1.5-.906 0-.896-.946-1.482-2.393-1.482-1.437 0-2.314.538-2.196 1.346m11.857.654c-.146 2.08-.078 2.109.904.38.76-1.339 1.273-1.528 1.806-.666.542.877.908.774 1.351-.38.444-1.157 0-1.584-1.648-1.584-1.626 0-2.299.628-2.413 2.25m10.998-.125c-.078 1.031.28 1.875.796 1.875s.938-.436.938-.969c0-.532.675-.709 1.5-.393.917.352 1.5 0 1.5-.906 0-2.283-4.561-1.904-4.734.393m14.277-1.194c-.317.512-.118 1.213.441 1.559.559.345 1.016-.074 1.016-.931 0-1.757-.6-2.015-1.457-.628m8.79.569c0 .905.926 1.5 2.334 1.5 2.472 0 3.109-1.402 1.178-2.595-.773-.479-.89-.251-.353.69.648 1.137.544 1.166-.545.155-1.786-1.657-2.614-1.578-2.614.25M142 148.583c0 .871.534 1.406 1.188 1.188 1.854-.618 2.161-2.771.395-2.771-.87 0-1.583.713-1.583 1.583m8-.083c0 .825.675 1.5 1.5 1.5s1.5-.675 1.5-1.5-.675-1.5-1.5-1.5-1.5.675-1.5 1.5m4.229-.312c.618 1.854 2.771 2.161 2.771.395 0-.87-.713-1.583-1.583-1.583-.871 0-1.406.534-1.188 1.188M171 148.5c0 .825.675 1.5 1.5 1.5s1.5-.675 1.5-1.5-.675-1.5-1.5-1.5-1.5.675-1.5 1.5m4 0c0 .817 1.866 1.28 5.5 1.364 4.263.098 5.5-.209 5.5-1.364s-1.237-1.462-5.5-1.364c-3.634.084-5.5.547-5.5 1.364m12.543-.569c-.683 1.105.894 2.299 1.818 1.375.95-.951.773-2.306-.302-2.306-.518 0-1.2.419-1.516.931m-164.301 8.295c.498 1.493 6.767 1.748 6.739.274-.011-.55-1.627-1.123-3.592-1.274-2.535-.195-3.449.095-3.147 1M36 156.5c0 .825.45 1.5 1 1.5s1-.675 1-1.5-.45-1.5-1-1.5-1 .675-1 1.5m10 0c0 .825.702 1.5 1.559 1.5.957 0 1.286-.483.853-1.25-.564-1-.436-1 .641 0 1.839 1.707 3.947 1.574 3.947-.25 0-1.048-1.056-1.5-3.5-1.5s-3.5.452-3.5 1.5m-22.805 8.25l.305 4.75 20.25.271 20.25.27V160H22.89l.305 4.75M28 164.5c0 1.048 1.056 1.5 3.5 1.5s3.5-.452 3.5-1.5-1.056-1.5-3.5-1.5-3.5.452-3.5 1.5m9 0c0 .825.177 1.5.393 1.5.216 0 .652-.675.969-1.5.316-.825.139-1.5-.393-1.5-.533 0-.969.675-.969 1.5m7 0c0 .825.675 1.5 1.5 1.5s1.5-.675 1.5-1.5-.675-1.5-1.5-1.5-1.5.675-1.5 1.5m4-.19c0 .812.708 1.748 1.573 2.08 1.096.42 1.475.099 1.25-1.061-.411-2.116-2.823-2.988-2.823-1.019m4.177.243c.452 2.172 2.227 2.305 2.633.197.21-1.095-.28-1.75-1.31-1.75-.961 0-1.512.647-1.323 1.553M56 164.5c0 .825.675 1.5 1.5 1.5s1.5-.675 1.5-1.5-.675-1.5-1.5-1.5-1.5.675-1.5 1.5m-28.362 8c-.35.914-.001 1.5.893 1.5.808 0 1.469-.675 1.469-1.5s-.402-1.5-.893-1.5-1.152.675-1.469 1.5m4.362 0c0 .825.45 1.5 1 1.5s1-.675 1-1.5-.45-1.5-1-1.5-1 .675-1 1.5m3.636-.006c.316.822.984 1.241 1.485.931 1.049-.648.207-2.425-1.149-2.425-.5 0-.651.672-.336 1.494m4.002.006c.317.825.978 1.5 1.469 1.5.491 0 .893-.675.893-1.5s-.661-1.5-1.469-1.5c-.894 0-1.243.586-.893 1.5m5.489-.709c-2.394.798-.964 2.009 2.373 2.009 2.32 0 3.5-.468 3.5-1.389 0-1.291-2.93-1.601-5.873-.62" fill="#1976D2" fill-rule="evenodd"/><path fill-opacity=".237" d="M0 59.011v5.997l128.25-.254L256.5 64.5l.291-6 .292-6-128.542.258L0 53.015v5.996M.32 59c0 3.575.182 5.037.403 3.25.222-1.788.222-4.712 0-6.5C.502 53.962.32 55.425.32 59M5 57.434C5 59.631 5.441 60 8.07 60c2.611 0 3.021-.336 2.75-2.25-.229-1.611-1.101-2.34-3.07-2.566-2.368-.273-2.75.04-2.75 2.25m11 .545c0 2.825.072 2.86 6 2.888 3.3.016 6-.398 6-.919S26.475 59 24.611 59c-2.581 0-3.356-.406-3.25-1.705.096-1.178-.712-1.778-2.611-1.94-2.414-.206-2.75.115-2.75 2.624m7.75-2.317c.688.278 1.813.278 2.5 0 .688-.277.125-.504-1.25-.504s-1.937.227-1.25.504m5.461.876c-.751.851-.856 1.462-.25 1.462.571 0 1.039.754 1.039 1.675 0 1.476.216 1.447 1.825-.247 1.462-1.54 1.575-2.171.571-3.175-1.533-1.533-1.586-1.528-3.185.285m-5.461 1.124c.688.278 1.813.278 2.5 0 .688-.277.125-.504-1.25-.504s-1.937.227-1.25.504m1.166 22.397c-.42 7.228-.289 11.672.334 11.287.413-.255.75-1.247.75-2.205s.54-2.281 1.2-2.941c.933-.933.933-1.2 0-1.2-.66 0-1.2-.45-1.2-1s.675-1 1.5-1c1.766 0 1.976 3.242.4 6.186-.842 1.574-.816 1.88.112 1.307.672-.416 1.6-.135 2.084.629.691 1.09.877 1.012.889-.372.008-1 .765-1.743 1.765-1.735 1.34.012 1.438.214.416.861-1.078.684-1.036.96.218 1.441 1.24.476 1.53-.148 1.445-3.111-.134-4.606-1.482-6.421-4.22-5.681-1.95.527-1.969.483-.263-.581 1.347-.84 2.146-.852 2.95-.048.607.607 1.577 1.094 2.154 1.082.578-.012-.071-.884-1.441-1.937-2.335-1.793-2.608-1.809-4.341-.241-1.734 1.57-1.936 1.554-3.258-.254-1.031-1.41-1.433-1.541-1.494-.487m32.036.935c-.327 1.803-1.283 2.67-3.452 3.131l-3 .638 3.19.119c2.923.108 3.222.431 3.582 3.868l.392 3.75.168-3.684c.146-3.198.53-3.738 2.918-4.1l2.75-.416-2.684-.15c-2.125-.119-2.759-.722-3.048-2.9l-.364-2.75-.452 2.494m-15.688-.276c1.52.229 3.77.223 5-.014 1.23-.237-.014-.425-2.764-.418-2.75.008-3.756.202-2.236.432m-10.451 3.965c.721.289 1.584.253 1.916-.079.332-.332-.258-.568-1.312-.525-1.165.048-1.402.285-.604.604m10.451 1.035c1.52.229 3.77.223 5-.014 1.23-.237-.014-.425-2.764-.418-2.75.008-3.756.202-2.236.432M30 86.969c0 .532.675.709 1.5.393.825-.317 1.5-.753 1.5-.969 0-.216-.675-.393-1.5-.393s-1.5.436-1.5.969m9.728 3.753c1.775.221 4.925.224 7 .008 2.074-.217.622-.397-3.228-.402-3.85-.004-5.548.173-3.772.394M24.5 109c-.34.55-.141 1 .441 1S26 109.55 26 109s-.198-1-.441-1-.719.45-1.059 1m10.085-.252c-1.146 1.146-.56 2.18.915 1.614.825-.317 1.5-.078 1.5.531S36.475 112 35.833 112c-.641 0-.87.296-.508.658.362.362.156 1.262-.456 2-.751.904-.77 1.342-.059 1.342.58 0 1.334-.877 1.674-1.949.34-1.072 1.158-1.821 1.817-1.664.66.157.862.096.449-.134-1.376-.77-.772-2.253.917-2.253.916 0 1.469-.198 1.227-.439-.781-.781-5.706-1.416-6.309-.813m10.721-.104c-.656.267-.941 1.144-.632 1.95.476 1.239.752 1.206 1.792-.216.993-1.359 1.388-1.424 2.058-.339.502.813.365 1.498-.347 1.735-.647.216-1.177 1.213-1.177 2.216 0 1.385.528 1.685 2.196 1.248 2.097-.548 2.108-.609.25-1.336-1.07-.419-1.436-.793-.813-.832 1.787-.111 2.349-3.863.675-4.505-1.651-.634-2.281-.621-4.002.079m7.951 1.593c-.119 1.578.079 1.838.669.882.461-.745 1.454-1.745 2.206-2.222 1.032-.654.868-.87-.669-.882-1.398-.01-2.09.687-2.206 2.222m6.718 1.967c-.265 2.586-.112 4.333.34 3.881.452-.452.669-2.568.482-4.703l-.339-3.882-.483 4.704M63 109.059c0 .582.403.81.895.506.906-.56 2.118 1.623 2.09 3.767-.01.749-.324.682-.875-.189-.6-.946-1.067-1.021-1.544-.25-.376.609-.181 1.107.434 1.107s.812.495.438 1.1c-.477.773-.049.762 1.441-.035 1.324-.709 2.147-2.156 2.191-3.85.06-2.306.185-2.422.832-.769.749 1.914.771 1.913 1.284-.048.375-1.437.003-2.033-1.332-2.134-1.02-.077-1.854.372-1.854.998 0 .816-.339.799-1.2-.062-1.484-1.484-2.8-1.55-2.8-.141m23.116.118c-.064.922-.903 1.882-1.866 2.134-1.561.408-1.569.47-.07.573.925.064 1.876 1.129 2.114 2.366.429 2.228.435 2.229.57.073.075-1.197.923-2.382 1.886-2.634 1.555-.406 1.564-.47.073-.573-.922-.064-1.882-.903-2.134-1.866-.406-1.555-.47-1.564-.573-.073m7.084.023c-.66.66-1.186 1.673-1.168 2.25.017.578.601.301 1.297-.614s2.594-1.86 4.218-2.1l2.953-.436-3.05-.15c-1.677-.083-3.59.39-4.25 1.05m9.672-.95c-.611 1.198-.414 4.75.265 4.75.474 0 .863-1.125.863-2.5 0-2.071-.604-3.276-1.128-2.25m2.528 3.25c0 2.918.359 3.5 2.156 3.5 1.753 0 2.137-.561 2.05-2.998-.133-3.76-1.558-3.966-1.742-.252-.134 2.694-.145 2.699-.585.25-.718-4.004-1.879-4.313-1.879-.5m9.483-2.633c1.936.543 2.123.874 1 1.766-.761.604-2.058 1.348-2.883 1.654-1.133.419-1.044.574.367.634 1.361.058 1.724.621 1.343 2.08-.288 1.101-.115 1.75.383 1.441.499-.308.907-1.175.907-1.928 0-.752.787-1.573 1.75-1.825 1.542-.403 1.524-.471-.155-.573-1.841-.112-1.845-.183-.095-2.116 1.777-1.964 1.748-1.998-1.595-1.9-2.922.085-3.067.194-1.022.767m16.196 3.383c.043 2.338.323 3.637.621 2.887.458-1.151.677-1.151 1.406 0 .632.998.867 1.028.879.113.008-.687.963-1.25 2.122-1.25 1.493 0 1.934.452 1.511 1.552-.341.89-.173 1.291.393.941 1.328-.821 1.268-5.493-.07-5.493-.582 0-.781.45-.441 1s.141 1-.441 1c-1.664 0-1.239-1.796.691-2.92 1.575-.917 1.531-1.022-.43-1.05-1.479-.02-2.32.694-2.614 2.22-.372 1.929-.453 1.858-.57-.5-.085-1.717-.699-2.75-1.636-2.75-1.11 0-1.479 1.104-1.421 4.25m10.704-1.223c-.278 1.893-.04 2.892.636 2.668 1.203-.4 1.71-5.695.545-5.695-.405 0-.937 1.362-1.181 3.027m6.192 1.177c-.265 2.586-.112 4.333.34 3.881.452-.452.669-2.568.482-4.703l-.339-3.882-.483 4.704m-120.373-2.368c-.285.459-.125 2.147.355 3.75.479 1.603.917 2.239.972 1.414.083-1.23.257-1.255.964-.139.599.945.991.258 1.284-2.25.341-2.926.091-3.611-1.319-3.611-.957 0-1.972.376-2.256.836m98.398.195c0 .533.675.969 1.5.969s1.5-.177 1.5-.393c0-.216-.675-.652-1.5-.969-.825-.316-1.5-.139-1.5.393m-28.921 1.552c.048 1.165.285 1.402.604.605.289-.722.253-1.585-.079-1.917-.332-.332-.568.258-.525 1.312m24.464-.652c-.905 1.463 1.499 2.428 2.794 1.123.887-.895.709-1-.751-.443-1.336.509-1.696.375-1.191-.441.398-.644.498-1.17.223-1.17s-.759.419-1.075.931m-67.284 1.786c-.948.339-.906.779.179 1.863 1.812 1.813 2.44 1.798 2.169-.051-.282-1.925-.836-2.352-2.348-1.812m21.01-.024c.973.254 2.323.237 3-.037.677-.274-.119-.481-1.769-.461-1.65.02-2.204.244-1.231.498m50.338.889c-.939 2.447-.735 2.689.893 1.061 1.7-1.7 1.917-2.643.607-2.643-.491 0-1.166.712-1.5 1.582m-100.744.221c1.151.806 1.151 1.039 0 1.497-.917.365-.763.568.47.621 2.098.09 1.775-2.098-.395-2.685-1.189-.321-1.202-.223-.075.567m13.721 1.556c.75 1.954 2.023 2.119 3.017.391.396-.687.351-.916-.099-.509-.45.408-1.432.232-2.183-.391-1.079-.895-1.233-.789-.735.509m36.178.348c1.244.239 3.044.23 4-.02s-.062-.446-2.262-.435c-2.2.011-2.982.216-1.738.455M34.195 136.5c.02 1.65.244 2.204.498 1.231.254-.973.237-2.323-.037-3-.274-.677-.481.119-.461 1.769m57 0c.02 1.65.244 2.204.498 1.231.254-.973.237-2.323-.037-3-.274-.677-.481.119-.461 1.769m57 0c.02 1.65.244 2.204.498 1.231.254-.973.237-2.323-.037-3-.274-.677-.481.119-.461 1.769m34 0c.02 1.65.244 2.204.498 1.231.254-.973.237-2.323-.037-3-.274-.677-.481.119-.461 1.769m23 0c.02 1.65.244 2.204.498 1.231.254-.973.237-2.323-.037-3-.274-.677-.481.119-.461 1.769m34 0c.02 1.65.244 2.204.498 1.231.254-.973.237-2.323-.037-3-.274-.677-.481.119-.461 1.769m-188.116.083c.048 1.165.285 1.402.604.605.289-.722.253-1.585-.079-1.917-.332-.332-.568.258-.525 1.312m11.464-.652c-.317.512-.118 1.213.441 1.559.559.345 1.016-.074 1.016-.931 0-1.757-.6-2.015-1.457-.628m11.095.569c.317.825.753 1.5.969 1.5.216 0 .393-.675.393-1.5s-.436-1.5-.969-1.5c-.532 0-.709.675-.393 1.5m11.362.059c0 .857.457 1.276 1.016.931.559-.346.758-1.047.441-1.559-.857-1.387-1.457-1.129-1.457.628m23.079.024c.048 1.165.285 1.402.604.605.289-.722.253-1.585-.079-1.917-.332-.332-.568.258-.525 1.312M119 136c0 .55.45 1 1 1s1-.45 1-1-.45-1-1-1-1 .45-1 1m13.333.456c0 .801.383 1.22.85.931.467-.289.591-.944.274-1.456-.808-1.308-1.124-1.161-1.124.525m8.746.127c.048 1.165.285 1.402.604.605.289-.722.253-1.585-.079-1.917-.332-.332-.568.258-.525 1.312m13.559-.083c-.316.825-.139 1.5.393 1.5.533 0 .969-.675.969-1.5s-.177-1.5-.393-1.5c-.216 0-.652.675-.969 1.5m8.862-.5c.34.55.816 1 1.059 1s.441-.45.441-1-.477-1-1.059-1-.781.45-.441 1m2.833.456c0 .801.375 1.224.834.941.458-.283.833-.938.833-1.456s-.375-.941-.833-.941c-.459 0-.834.655-.834 1.456m11.21-.525c-.317.512-.118 1.213.441 1.559.559.345 1.016-.074 1.016-.931 0-1.757-.6-2.015-1.457-.628m11.536.652c.048 1.165.285 1.402.604.605.289-.722.253-1.585-.079-1.917-.332-.332-.568.258-.525 1.312m10.921-.142c0 .857.45 1.559 1 1.559s1-.423 1-.941-.45-1.219-1-1.559c-.55-.34-1 .084-1 .941m23.079.142c.048 1.165.285 1.402.604.605.289-.722.253-1.585-.079-1.917-.332-.332-.568.258-.525 1.312m9 0c.048 1.165.285 1.402.604.605.289-.722.253-1.585-.079-1.917-.332-.332-.568.258-.525 1.312M234.5 136c.34.55.816 1 1.059 1s.441-.45.441-1-.477-1-1.059-1-.781.45-.441 1m8.637-.663c.2.126 1.076.769 1.946 1.43 1.246.945 1.584.928 1.584-.083 0-.706-.876-1.349-1.947-1.43-1.07-.081-1.783-.044-1.583.083M137.141 148.5l.233 4.5H165.799l.358-4.5.357-4.5h-29.606l.233 4.5m-45.946-1c.02 1.65.244 2.204.498 1.231.254-.973.237-2.323-.037-3-.274-.677-.481.119-.461 1.769m-57.037.5c0 1.375.227 1.938.504 1.25.278-.687.278-1.812 0-2.5-.277-.687-.504-.125-.504 1.25m4.175-.544c0 .801.383 1.22.85.931.467-.289.591-.944.274-1.456-.808-1.308-1.124-1.161-1.124.525m11.305.044c-.316.825-.139 1.5.393 1.5.533 0 .969-.675.969-1.5s-.177-1.5-.393-1.5c-.216 0-.652.675-.969 1.5m2.926-.207c.376.986.935 1.541 1.243 1.233.308-.307.001-1.114-.683-1.793-.988-.98-1.102-.865-.56.56m11.515.29c.048 1.165.285 1.402.604.605.289-.722.253-1.585-.079-1.917-.332-.332-.568.258-.525 1.312m8.254-.127c0 .801.375 1.224.834.941.458-.283.833-.938.833-1.456s-.375-.941-.833-.941c-.459 0-.834.655-.834 1.456M75 147.5c0 .825.436 1.5.969 1.5.532 0 .709-.675.393-1.5-.317-.825-.753-1.5-.969-1.5-.216 0-.393.675-.393 1.5m23.079.083c.048 1.165.285 1.402.604.605.289-.722.253-1.585-.079-1.917-.332-.332-.568.258-.525 1.312m8.254-.127c0 .801.375 1.224.834.941.458-.283.833-.938.833-1.456s-.375-.941-.833-.941c-.459 0-.834.655-.834 1.456m2.667-.015c0 .857.45 1.559 1 1.559s1-.423 1-.941-.45-1.219-1-1.559c-.55-.34-1 .084-1 .941m33.4-.041c-.366.954-.171 2.229.434 2.834.8.8 1.282.627 1.766-.634.366-.954.171-2.229-.434-2.834-.8-.8-1.282-.627-1.766.634m5.6.242c-2.375 1.262-2.391 1.329-.333 1.343 1.191.008 2.325.491 2.519 1.072.24.721 1.693.756 4.575.108 2.395-.538 3.985-.563 3.672-.057-.303.491-.123.892.401.892.942 0 2.166-2.307 2.166-4.082 0-.505-.702-.918-1.559-.918s-1.281.45-.941 1c.34.55.141 1-.441 1s-1.059-.361-1.059-.802c0-1.304-6.293-.994-9 .444M86 148c0 .55.477 1 1.059 1s.781-.45.441-1-.816-1-1.059-1-.441.45-.441 1m-61.362 8.5c.317.825.753 1.5.969 1.5.216 0 .393-.675.393-1.5s-.436-1.5-.969-1.5c-.532 0-.709.675-.393 1.5m11.362 0c0 .825.45 1.5 1 1.5s1-.675 1-1.5-.45-1.5-1-1.5-1 .675-1 1.5m12.079 16.083c.048 1.165.285 1.402.604.605.289-.722.253-1.585-.079-1.917-.332-.332-.568.258-.525 1.312m2 0c.048 1.165.285 1.402.604.605.289-.722.253-1.585-.079-1.917-.332-.332-.568.258-.525 1.312M32 173c0 .55.45 1 1 1s1-.45 1-1-.45-1-1-1-1 .45-1 1m8 .059c0 .582.45.781 1 .441s1-.816 1-1.059-.45-.441-1-.441-1 .477-1 1.059" fill="#1976D2" fill-rule="evenodd"/></svg>